<svg width="40" height="40" viewBox="0 0 40 40" fill="none" xmlns="http://www.w3.org/2000/svg">
<g id="Double Bed ">
<path id="Vector" d="M33.3333 5.83334H6.66663C5.34054 5.83334 4.06877 6.36012 3.13109 7.2978C2.19341 8.23548 1.66663 9.50725 1.66663 10.8333V32.5C1.66663 32.942 1.84222 33.366 2.15478 33.6785C2.46734 33.9911 2.89127 34.1667 3.33329 34.1667H9.99996C10.2745 34.1653 10.5444 34.096 10.7857 33.9652C11.027 33.8344 11.2323 33.6459 11.3833 33.4167L14.2333 29.1667H25.7666L28.6166 33.4167C28.7676 33.6459 28.9729 33.8344 29.2142 33.9652C29.4555 34.096 29.7254 34.1653 30 34.1667H36.6666C37.1087 34.1667 37.5326 33.9911 37.8451 33.6785C38.1577 33.366 38.3333 32.942 38.3333 32.5V10.8333C38.3333 9.50725 37.8065 8.23548 36.8688 7.2978C35.9311 6.36012 34.6594 5.83334 33.3333 5.83334ZM35 30.8333H30.9L28.05 26.6667C27.9089 26.4219 27.7079 26.217 27.466 26.0713C27.224 25.9255 26.9489 25.8436 26.6666 25.8333H13.3333C13.0588 25.8348 12.7889 25.904 12.5475 26.0348C12.3062 26.1656 12.1009 26.3541 11.95 26.5833L9.09996 30.8333H4.99996V22.5H35V30.8333ZM11.6666 19.1667V17.5C11.6666 17.058 11.8422 16.6341 12.1548 16.3215C12.4673 16.0089 12.8913 15.8333 13.3333 15.8333H16.6666C17.1087 15.8333 17.5326 16.0089 17.8451 16.3215C18.1577 16.6341 18.3333 17.058 18.3333 17.5V19.1667H11.6666ZM21.6666 19.1667V17.5C21.6666 17.058 21.8422 16.6341 22.1548 16.3215C22.4673 16.0089 22.8913 15.8333 23.3333 15.8333H26.6666C27.1087 15.8333 27.5326 16.0089 27.8451 16.3215C28.1577 16.6341 28.3333 17.058 28.3333 17.5V19.1667H21.6666ZM35 19.1667H31.6666V17.5C31.6666 16.1739 31.1398 14.9022 30.2022 13.9645C29.2645 13.0268 27.9927 12.5 26.6666 12.5H23.3333C22.0999 12.5074 20.9127 12.9704 20 13.8C19.0872 12.9704 17.9 12.5074 16.6666 12.5H13.3333C12.0072 12.5 10.7354 13.0268 9.79776 13.9645C8.86008 14.9022 8.33329 16.1739 8.33329 17.5V19.1667H4.99996V10.8333C4.99996 10.3913 5.17555 9.96739 5.48811 9.65482C5.80067 9.34226 6.2246 9.16667 6.66663 9.16667H33.3333C33.7753 9.16667 34.1992 9.34226 34.5118 9.65482C34.8244 9.96739 35 10.3913 35 10.8333V19.1667Z" fill="#1A1A1A"/>
</g>
</svg>
